<?xml version="1.0" encoding="UTF-8" standalone="no"?>
<!-- Created with Inkscape (http://www.inkscape.org/) -->

<svg
   xmlns:dc="http://purl.org/dc/elements/1.1/"
   xmlns:cc="http://creativecommons.org/ns#"
   xmlns:rdf="http://www.w3.org/1999/02/22-rdf-syntax-ns#"
   xmlns:svg="http://www.w3.org/2000/svg"
   xmlns="http://www.w3.org/2000/svg"
   xmlns:sodipodi="http://sodipodi.sourceforge.net/DTD/sodipodi-0.dtd"
   xmlns:inkscape="http://www.inkscape.org/namespaces/inkscape"
   width="5000"
   height="5000"
   viewBox="0 0 5000 4999.9999"
   id="svg2"
   version="1.1"
   inkscape:version="0.92.4 (5da689c313, 2019-01-14)"
   sodipodi:docname="circle-rust.svg"
   inkscape:export-filename="/home/felicianotech/Projects/cloud-unpacked/graphics/logos/master/master.png"
   inkscape:export-xdpi="11.9"
   inkscape:export-ydpi="11.9">
  <defs
     id="defs4">
    <path
       d="M34,15.167c0,0-7.333,5.833-9.333,6C22.667,21.333,14,27,14,27l-5.667-0.166L2,19.667l8.667,64.752h100.581    l-70.51-70.51L34,15.167z"
       id="SVGID_1_" />
    <filter
       height="70.51"
       width="109.248"
       y="13.909"
       x="2"
       filterUnits="userSpaceOnUse"
       id="Adobe_OpacityMaskFilter">
      <feColorMatrix
         id="feColorMatrix1326"
         values="1 0 0 0 0  0 1 0 0 0  0 0 1 0 0  0 0 0 1 0"
         type="matrix" />
    </filter>
    <path
       d="M18.692,15.471h3.947v-3.866h-3.947V15.471z M4.164,15.47h3.947v-3.866H4.164V15.47z M8.111,11.604h0.002    H8.111z M9.008,15.47h3.947v-3.866H9.008V15.47z M13.851,15.47h3.946v-3.866h-3.946V15.47z M23.535,15.47h3.946v-3.866h-3.946    V15.47z M7.588,22.131c0-1.129,0.936-2.046,2.087-2.046c1.151,0,2.089,0.917,2.089,2.046c0,1.127-0.937,2.046-2.089,2.046    C8.526,24.177,7.588,23.258,7.588,22.131 M32.206,9.347c-0.835,0.948-1.084,2.522-0.97,3.731c0.084,0.89,0.369,1.791,0.928,2.506    c-0.425,0.25-0.908,0.447-1.338,0.591c-0.874,0.289-1.825,0.45-2.75,0.45H2.111l-0.056,0.589c-0.184,1.955,0.089,3.911,0.915,5.7    l0.354,0.711l0.041,0.066c2.443,4.063,6.729,5.774,11.402,5.774c9.046,0,16.507-3.957,19.933-12.318    c2.289,0.115,4.631-0.547,5.752-2.689l0.286-0.549l-0.542-0.305c-1.327-0.749-3.091-0.853-4.594-0.418v0.001    c-0.186-1.567-1.235-2.939-2.484-3.922l-0.495-0.389L32.206,9.347z M9.008,10.512h3.947V6.645H9.008V10.512z M13.851,10.512h3.946    V6.645h-3.946V10.512z M18.692,10.512h3.947V6.645h-3.947V10.512z M18.692,5.554h3.947V1.687h-3.947V5.554z"
       id="SVGID_6_" />
  </defs>
  <sodipodi:namedview
     id="base"
     pagecolor="#000000"
     bordercolor="#666666"
     borderopacity="1.0"
     inkscape:pageopacity="0"
     inkscape:pageshadow="2"
     inkscape:zoom="0.1767767"
     inkscape:cx="2447.1146"
     inkscape:cy="2320.3448"
     inkscape:document-units="px"
     inkscape:current-layer="layer1"
     showgrid="false"
     inkscape:window-width="3732"
     inkscape:window-height="2032"
     inkscape:window-x="108"
     inkscape:window-y="54"
     inkscape:window-maximized="1"
     fit-margin-top="0"
     fit-margin-left="0"
     fit-margin-right="0"
     fit-margin-bottom="0"
     showborder="true"
     units="px"
     inkscape:pagecheckerboard="true" />
  <metadata
     id="metadata7">
    <rdf:RDF>
      <cc:Work
         rdf:about="">
        <dc:format>image/svg+xml</dc:format>
        <dc:type
           rdf:resource="http://purl.org/dc/dcmitype/StillImage" />
        <dc:title></dc:title>
      </cc:Work>
    </rdf:RDF>
  </metadata>
  <g
     inkscape:label="Layer 1"
     inkscape:groupmode="layer"
     id="layer1"
     transform="translate(2386.9101,-3798.7827)">
    <circle
       style="fill:#85582c;fill-opacity:1"
       id="path864"
       cx="113.0899"
       cy="6298.7827"
       r="2500" />
    <circle
       style="fill:#000000;fill-opacity:1;stroke:none;stroke-width:2;stroke-linecap:square;stroke-linejoin:miter;stroke-miterlimit:4;stroke-dasharray:none;stroke-opacity:1"
       id="path4304-4-6"
       cx="2523.1167"
       cy="-317.93839"
       r="0" />
    <circle
       style="fill:#000000;fill-opacity:1;stroke:none;stroke-width:2;stroke-linecap:square;stroke-linejoin:miter;stroke-miterlimit:4;stroke-dasharray:none;stroke-opacity:1"
       id="path4304-4-2"
       cx="320.25952"
       cy="862.34735"
       r="0" />
    <circle
       style="fill:#000000;fill-opacity:1;stroke:none;stroke-width:2;stroke-linecap:square;stroke-linejoin:miter;stroke-miterlimit:4;stroke-dasharray:none;stroke-opacity:1"
       id="path4304-4-0"
       cx="2523.1167"
       cy="862.34735"
       r="0" />
    <circle
       style="fill:#000000;fill-opacity:1;stroke:none;stroke-width:2;stroke-linecap:square;stroke-linejoin:miter;stroke-miterlimit:4;stroke-dasharray:none;stroke-opacity:1"
       id="path4304-4-0-6"
       cx="1385.9738"
       cy="2456.3474"
       r="0" />
    <circle
       style="fill:#000000;fill-opacity:1;stroke:none;stroke-width:2;stroke-linecap:square;stroke-linejoin:miter;stroke-miterlimit:4;stroke-dasharray:none;stroke-opacity:1"
       id="path4304-4-9-6"
       cx="2458.947"
       cy="2162.2476"
       r="0" />
    <circle
       style="fill:#000000;fill-opacity:1;stroke:none;stroke-width:2;stroke-linecap:square;stroke-linejoin:miter;stroke-miterlimit:4;stroke-dasharray:none;stroke-opacity:1"
       id="path4304-4-9-0"
       cx="2475.4346"
       cy="-339.29968"
       r="0" />
    <path
       id="path1064"
       d="m 34.880634,5343.3287 a 74.306875,74.306875 0 0 1 148.613696,0 74.306875,74.306875 0 0 1 -148.613696,0 m -886.433404,672.7684 a 74.306143,74.306143 0 0 1 148.608,0 74.306143,74.306143 0 0 1 -148.608,0 m 1772.8493,3.4665 a 74.3069,74.3069 0 0 1 148.61377,0 74.3069,74.3069 0 0 1 -148.61377,0 m -1557.7501,101.8011 c 34.1892,-15.1784 49.6289,-55.2497 34.4505,-89.5085 l -32.9698,-74.5508 h 129.6552 v 584.4096 h -261.5809 a 914.84062,914.84062 0 0 1 -29.6193,-349.2254 z m 542.352504,14.3713 V 5963.4778 H 214.64673 c 15.9449,0 112.6071,18.4301 112.6071,90.7047 0,60.0111 -74.1385,81.5303 -135.1018,81.5303 z m -421.523304,927.4627 a 74.3069,74.3069 0 0 1 148.6138,0 74.3069,74.3069 0 0 1 -148.6138,0 m 1100.9867,3.4665 a 74.3069,74.3069 0 0 1 148.6138,0 74.3069,74.3069 0 0 1 -148.6138,0 m 22.9767,-168.5071 c -36.5989,-7.8389 -72.6056,15.4455 -80.4503,52.1199 l -37.2957,174.0524 a 914.84062,914.84062 0 0 1 -762.9272,-3.6581 l -37.2725,-174.0524 c -7.8447,-36.6222 -43.8513,-59.9588 -80.427,-52.0909 l -153.6597,32.993 a 914.84062,914.84062 0 0 1 -79.4457,-93.6486 h 747.6501 c 8.466,0 14.11,-1.4342 14.11,-9.2325 v -264.4667 c 0,-7.6996 -5.644,-9.2325 -14.11,-9.2325 H -94.147566 V 6383.2998 H 142.34893 c 21.5889,0 115.4291,6.1724 145.4317,126.119 9.3951,36.8892 30.0317,156.8823 44.1359,195.3045 14.0577,43.0791 71.2932,129.1501 132.2798,129.1501 h 386.0218 a 914.84062,914.84062 0 0 1 -84.7297,98.0674 z M 1023.504,6199.8814 a 914.84062,914.84062 0 0 1 1.9104,158.8159 h -93.86347 c -9.395,0 -13.1693,6.1724 -13.1693,15.3758 v 43.1081 c 0,101.4643 -57.2123,123.5293 -107.3463,129.1501 -47.7476,5.3769 -100.6804,-19.9863 -107.207,-49.205 -28.162,-158.4153 -75.0966,-192.2445 -149.2119,-250.6994 91.9764,-58.4084 187.6805,-144.5723 187.6805,-259.9027 0,-124.5397 -85.3742,-202.9808 -143.5678,-241.4495 -81.6464,-53.8154 -172.0433,-64.5982 -196.431,-64.5982 h -970.7334 a 914.84062,914.84062 0 0 1 511.821504,-288.8544 l 114.4246,120.0395 c 25.8683,27.0877 68.709296,28.0923 95.773796,2.1542 l 128.0294,-122.4608 a 914.84062,914.84062 0 0 1 626.2925,446.0561 l -87.6446,197.9581 c -15.1319,34.2588 0.2323,74.3301 34.4737,89.5085 z m 218.5889,3.1994 -2.9845,-30.6007 90.2749,-84.2013 c 18.3605,-17.1178 11.4971,-51.5741 -11.9789,-60.3246 l -115.4059,-43.1546 -9.0351,-29.7878 71.9843,-99.9836 c 14.6848,-20.323 1.1961,-52.7644 -23.5225,-56.829 l -121.6944,-19.7947 -14.6268,-27.3258 51.1386,-112.2471 c 10.4693,-22.8605 -8.9886,-52.0966 -34.1427,-51.1444 l -123.50607,4.3085 -19.5101,-23.6734 28.37667,-120.3009 c 5.7369,-24.4341 -19.05137,-49.2514 -43.48547,-43.5145 l -120.2834,28.3535 -23.7199,-19.5101 4.3317,-123.5061 c 0.9523,-25.0089 -28.3071,-44.5423 -51.1154,-34.1659 l -112.2238,51.1618 -27.3316,-14.6558 -19.8411,-121.7119 c -4.0182,-24.6721 -36.4828,-38.1608 -56.8059,-23.5282 l -100.0532,71.99 -29.7414,-9.0176 -43.1545,-115.4233 c -8.7505,-23.5283 -43.2242,-30.293 -60.2956,-12.0255 l -84.2071,90.3447 -30.6007,-2.9846 -65.028,-105.076 c -13.1519,-21.2811 -48.368796,-21.2811 -61.468496,0 l -65.0279,105.076 -30.6298,2.9846 -84.2245,-90.3447 c -17.071404,-18.2675 -51.550904,-11.5028 -60.301404,12.0255 l -43.1487,115.4233 -29.7704,9.0176 -100.03,-71.99 c -20.3231,-14.6791 -52.8109,-1.1962 -56.8291,23.5282 l -19.8411,121.7119 -27.3316,14.6558 -112.2239,-51.1618 c -22.8082,-10.4228 -52.0676,9.157 -51.1153,34.1659 l 4.3084,123.5061 -23.7199,19.5101 -120.2834,-28.3535 c -24.4341,-5.6905 -49.2456,19.0804 -43.5087,43.5145 l 28.3303,120.3009 -19.4637,23.6734 -123.506,-4.3085 c -24.9103,-0.7142 -44.5424,28.2839 -34.166,51.1444 l 51.1618,112.2471 -14.6558,27.3258 -121.68863,19.7947 c -24.7244,4.0181 -38.1086,36.506 -23.5283,56.829 l 71.99013,99.9836 -9.0409,29.7878 -115.42333,43.1546 c -23.4296,8.7505 -30.2929,43.2068 -11.979,60.3246 l 90.2982,84.2013 -2.9846,30.6007 -105.0527,65.0337 c -21.2811,13.1461 -21.2811,48.3631 0,61.4627 l 105.0527,65.0338 2.9846,30.6007 -90.2982,84.2303 c -18.3139,17.0656 -11.4506,51.4986 11.979,60.2956 l 115.42333,43.1546 9.0409,29.7877 -71.99013,100.0069 c -14.6326,20.3695 -1.1961,52.8341 23.5515,56.8058 l 121.66543,19.7946 14.6558,27.3781 -51.1618,112.2007 c -10.4228,22.8082 9.2557,52.1431 34.166,51.1386 l 123.4596,-4.3318 19.5101,23.7199 -28.3303,120.3299 c -5.7369,24.3819 19.0746,49.1528 43.5087,43.4159 l 120.2834,-28.3304 23.7199,19.4579 -4.3084,123.5351 c -0.9523,25.009 28.3071,44.5655 51.1153,34.1427 l 112.2239,-51.1444 27.3316,14.6558 19.8411,121.648 c 4.0182,24.7651 36.506,38.1551 56.8291,23.5747 l 99.9836,-72.0365 29.7877,9.0583 43.1546,115.3827 c 8.7505,23.4295 43.23,30.3394 60.295604,11.979 l 84.2303,-90.3041 30.6239,3.0601 65.0338,105.0528 c 13.0997,21.1824 48.316596,21.2288 61.468496,0 l 65.028,-105.0528 30.6007,-3.0601 84.2071,90.3041 c 17.0655,18.3604 51.545,11.4505 60.2956,-11.979 l 43.1545,-115.3827 29.7878,-9.0583 100.0068,72.0365 c 20.3231,14.5804 52.7877,1.1904 56.8058,-23.5747 l 19.8411,-121.648 27.3316,-14.6558 112.2239,51.1444 c 22.8083,10.4228 52.0212,-9.0873 51.1154,-34.1427 l -4.3085,-123.5351 23.6967,-19.4579 120.2776,28.3304 c 24.4341,5.7369 49.22817,-19.034 43.49127,-43.4159 l -28.33027,-120.3299 19.4578,-23.7199 123.51187,4.3318 c 24.9103,0.9522 44.612,-28.3304 34.1428,-51.1386 l -51.1445,-112.2007 14.6326,-27.3781 121.6945,-19.7946 c 24.765,-3.9717 38.2015,-36.4363 23.5224,-56.8058 l -71.9842,-100.0069 9.035,-29.7877 115.4059,-43.1546 c 23.4761,-8.797 30.3394,-43.23 11.979,-60.2956 l -90.2808,-84.2303 2.9904,-30.6007 105.0528,-65.0338 c 21.2753,-13.0996 21.3043,-48.3166 0,-61.4627 z"
       inkscape:connector-curvature="0"
       style="stroke-width:23.90802574" />
  </g>
  <style
     id="style1118"
     type="text/css">
	.st0{fill:#2DBCAF;}
	.st1{fill:#5DC9E1;}
	.st2{fill:#FDDD00;}
	.st3{fill:#CE3262;}
	.st4{fill:#00ACD7;}
	.st5{fill:#FFFFFF;}
</style>
</svg>
